<svg width="82" height="20" viewBox="0 0 82 20" fill="none" xmlns="http://www.w3.org/2000/svg">
<g clip-path="url(#clip0_444_4378)">
<mask id="mask0_444_4378" style="mask-type:luminance" maskUnits="userSpaceOnUse" x="0" y="4" width="82" height="15">
<path d="M81.557 4.08203H0.911133V18.8945H81.557V4.08203Z" fill="white"/>
</mask>
<g mask="url(#mask0_444_4378)">
<path d="M14.1668 4.08594C14.7113 4.95461 14.9567 5.84934 14.9567 6.97958C14.9567 10.5844 11.7709 15.2674 9.18538 18.5558H3.27966L0.911133 4.87521L6.08223 4.40097L7.33449 14.1355C8.5046 12.2942 9.94851 9.40061 9.94851 7.42776C9.94851 6.34789 9.75702 5.61236 9.45769 5.00674L14.1668 4.08594Z" fill="#FCF8F1"/>
<path d="M20.869 10.1098C21.8207 10.1098 24.2162 9.68935 24.2162 8.37411C24.2162 7.74256 23.754 7.42753 23.2092 7.42753C22.2562 7.42753 21.0054 8.53156 20.869 10.1098ZM20.76 12.7147C20.76 14.3207 21.6845 14.9507 22.9101 14.9507C24.2447 14.9507 25.5225 14.6357 27.1834 13.8203L26.5578 17.9237C25.3876 18.476 23.5638 18.8445 21.7936 18.8445C17.3033 18.8445 15.6963 16.2141 15.6963 12.9256C15.6963 8.66338 18.3104 4.1377 23.6999 4.1377C26.6671 4.1377 28.3263 5.74352 28.3263 7.97953C28.3266 11.5843 23.537 12.6886 20.76 12.7147Z" fill="#FCF8F1"/>
<path d="M43.25 7.24398C43.25 7.77006 43.1675 8.53313 43.0851 9.03182L41.5336 18.5033H36.4983L37.9137 9.82097C37.9406 9.58547 38.023 9.11138 38.023 8.84833C38.023 8.21674 37.6146 8.05918 37.1235 8.05918C36.4712 8.05918 35.8174 8.34827 35.382 8.55935L33.7765 18.5035H28.7129L31.0262 4.32292H35.4088L35.4642 5.45477C36.4982 4.79716 37.8596 4.08594 39.7913 4.08594C42.3506 4.08567 43.25 5.34891 43.25 7.24398Z" fill="#FCF8F1"/>
<path d="M58.1979 5.69004C59.64 4.69134 61.0018 4.1377 62.8791 4.1377C65.4645 4.1377 66.3639 5.40094 66.3639 7.29601C66.3639 7.82212 66.2815 8.58519 66.1995 9.08387L64.6495 18.5555H59.6129L61.0554 9.6895C61.0819 9.45249 61.1379 9.1634 61.1379 8.98002C61.1379 8.26891 60.7292 8.11121 60.2381 8.11121C59.6129 8.11121 58.9876 8.37426 58.5234 8.61138L56.9182 18.5555H51.883L53.3252 9.68961C53.3517 9.45264 53.4061 9.16355 53.4061 8.98017C53.4061 8.26906 52.9971 8.11135 52.5079 8.11135C51.8543 8.11135 51.2018 8.40044 50.7663 8.61152L49.1596 18.5557H44.0977L46.4109 4.37508H50.7399L50.876 5.55892C51.883 4.84946 53.2432 4.13823 55.0669 4.13823C56.646 4.13769 57.6795 4.79545 58.1979 5.69004Z" fill="#FCF8F1"/>
<path d="M76.3854 9.81903C76.3854 8.6614 76.0856 7.87214 75.1882 7.87214C73.2012 7.87214 72.7929 11.2657 72.7929 13.0017C72.7929 14.3187 73.1744 15.1337 74.0718 15.1337C75.9499 15.1337 76.3854 11.5549 76.3854 9.81903ZM67.6758 12.7921C67.6758 8.32016 70.1251 4.13574 75.7601 4.13574C80.0063 4.13574 81.5585 6.55677 81.5585 9.89845C81.5585 14.3185 79.1357 18.8959 73.3646 18.8959C69.0912 18.8959 67.6758 16.1857 67.6758 12.7921Z" fill="#FCF8F1"/>
</g>
</g>
<defs>
<clipPath id="clip0_444_4378">
<rect width="82" height="15.8" fill="white" transform="translate(0 3.58789)"/>
</clipPath>
</defs>
</svg>
