<svg width="24" height="24" viewBox="0 0 24 24" fill="none" xmlns="http://www.w3.org/2000/svg">
<path d="M4.36603 21.2345V19.9985C4.37328 19.8946 4.35828 19.7903 4.32204 19.6926C4.28579 19.5949 4.22913 19.506 4.15584 19.4319C4.08254 19.3579 3.9943 19.3003 3.89698 19.263C3.79967 19.2257 3.69553 19.2096 3.59151 19.2158C3.45537 19.2069 3.31933 19.2347 3.1976 19.2963C3.07586 19.3579 2.97287 19.451 2.89937 19.5659C2.83238 19.4544 2.73657 19.3631 2.62201 19.3014C2.50745 19.2398 2.3784 19.2102 2.24843 19.2158C2.13514 19.2101 2.02233 19.2341 1.92117 19.2854C1.82 19.3367 1.73399 19.4135 1.67165 19.5083V19.2652H1.24316V21.2345H1.67575V20.1427C1.66639 20.0754 1.67208 20.0067 1.69239 19.9418C1.7127 19.8769 1.74713 19.8173 1.79322 19.7673C1.8393 19.7173 1.89589 19.6781 1.95893 19.6525C2.02196 19.627 2.08987 19.6157 2.15778 19.6195C2.44205 19.6195 2.58627 19.8049 2.58627 20.1386V21.2345H3.01885V20.1427C3.0102 20.0755 3.01638 20.0072 3.03695 19.9426C3.05752 19.8779 3.09198 19.8186 3.13792 19.7688C3.18386 19.7189 3.24016 19.6797 3.30286 19.6539C3.36556 19.6281 3.43315 19.6164 3.50088 19.6195C3.79337 19.6195 3.93344 19.8049 3.93344 20.1386V21.2345H4.36603ZM10.7683 19.2652H10.0679V18.6678H9.63536V19.2652H9.23572V19.6566H9.63536V20.5547C9.63536 21.012 9.81252 21.284 10.3193 21.284C10.5086 21.2845 10.6942 21.2317 10.8548 21.1315L10.7312 20.7648C10.6163 20.8334 10.4859 20.8717 10.3522 20.8761C10.138 20.8761 10.0679 20.7442 10.0679 20.5465V19.6566H10.7683V19.2652ZM14.4226 19.2158C14.3182 19.2127 14.2148 19.2378 14.1235 19.2886C14.0321 19.3394 13.9561 19.4138 13.9036 19.5042V19.2652H13.4792V21.2345H13.9077V20.1304C13.9077 19.8049 14.0477 19.6236 14.3279 19.6236C14.4196 19.6224 14.5105 19.6392 14.5957 19.6731L14.7275 19.2693C14.6297 19.2343 14.5266 19.2162 14.4226 19.2158ZM8.89791 19.4218C8.65538 19.2775 8.37652 19.206 8.09453 19.2158C7.59601 19.2158 7.27468 19.4547 7.27468 19.8461C7.27468 20.1675 7.51362 20.3652 7.95443 20.427L8.15631 20.4558C8.39113 20.4888 8.50239 20.5506 8.50239 20.6618C8.50239 20.8143 8.34581 20.9008 8.05332 20.9008C7.81803 20.9076 7.58731 20.835 7.39825 20.6948L7.19639 21.0285C7.44596 21.2028 7.74491 21.2923 8.0492 21.284C8.61774 21.284 8.94731 21.0161 8.94731 20.6412C8.94731 20.2952 8.68779 20.1139 8.25932 20.0521L8.05746 20.0232C7.87204 19.9985 7.72375 19.9615 7.72375 19.8297C7.72375 19.6854 7.86378 19.5989 8.09864 19.5989C8.31429 19.6022 8.52556 19.6603 8.71251 19.7678L8.89791 19.4218ZM20.3759 19.2158C20.2714 19.2127 20.168 19.2378 20.0767 19.2886C19.9853 19.3394 19.9093 19.4138 19.8568 19.5042V19.2652H19.4324V21.2345H19.8609V20.1304C19.8609 19.8049 20.001 19.6236 20.2811 19.6236C20.3727 19.6224 20.4638 19.6392 20.5489 19.6731L20.6807 19.2693C20.5829 19.2343 20.4798 19.2162 20.3759 19.2158ZM14.8552 20.2498C14.8495 20.3885 14.8729 20.5269 14.9239 20.6561C14.9749 20.7852 15.0524 20.9023 15.1514 20.9997C15.2503 21.0971 15.3686 21.1727 15.4985 21.2217C15.6284 21.2706 15.7672 21.2918 15.9058 21.284C16.1631 21.2969 16.4158 21.2131 16.6144 21.0491L16.4084 20.703C16.2603 20.8159 16.0797 20.8781 15.8934 20.8802C15.7329 20.8704 15.5821 20.7998 15.4718 20.6826C15.3616 20.5655 15.3002 20.4107 15.3002 20.2498C15.3002 20.089 15.3616 19.9342 15.4718 19.817C15.5821 19.6999 15.7329 19.6293 15.8934 19.6195C16.0797 19.6216 16.2603 19.6838 16.4084 19.7967L16.6144 19.4506C16.4158 19.2866 16.163 19.2029 15.9058 19.2158C15.7672 19.2079 15.6285 19.2291 15.4985 19.2781C15.3686 19.327 15.2504 19.4026 15.1514 19.5C15.0524 19.5974 14.975 19.7144 14.924 19.8436C14.8729 19.9727 14.8495 20.1111 14.8552 20.2498ZM18.868 20.2498V19.2652H18.4395V19.5042C18.3664 19.4099 18.2717 19.3345 18.1635 19.2844C18.0553 19.2342 17.9366 19.2107 17.8174 19.2158C17.5519 19.2288 17.3016 19.3434 17.1183 19.5359C16.935 19.7284 16.8328 19.9841 16.8328 20.2499C16.8328 20.5157 16.935 20.7713 17.1183 20.9638C17.3016 21.1563 17.5519 21.2709 17.8174 21.284C17.9366 21.289 18.0553 21.2655 18.1635 21.2153C18.2717 21.1652 18.3664 21.0898 18.4395 20.9955V21.2345H18.868V20.2498ZM17.2736 20.2498C17.2802 20.1336 17.3207 20.0219 17.3901 19.9284C17.4595 19.835 17.5547 19.7639 17.664 19.7239C17.7734 19.6839 17.892 19.6768 18.0053 19.7034C18.1186 19.73 18.2216 19.7892 18.3017 19.8737C18.3818 19.9582 18.4354 20.0642 18.4559 20.1788C18.4764 20.2934 18.4629 20.4115 18.4171 20.5185C18.3713 20.6255 18.2952 20.7168 18.1982 20.781C18.1011 20.8453 17.9874 20.8798 17.871 20.8802C17.7894 20.8813 17.7085 20.8655 17.6333 20.8337C17.5581 20.802 17.4903 20.7551 17.4342 20.6958C17.3781 20.6366 17.3348 20.5664 17.3072 20.4897C17.2795 20.4129 17.2681 20.3312 17.2736 20.2498ZM12.1032 19.2158C11.836 19.2298 11.5846 19.3468 11.4018 19.5422C11.219 19.7376 11.119 19.9962 11.1227 20.2637C11.1264 20.5313 11.2336 20.787 11.4218 20.9772C11.61 21.1674 11.8645 21.2773 12.132 21.284C12.426 21.2943 12.7134 21.196 12.9395 21.0079L12.7294 20.6907C12.5667 20.8211 12.3652 20.8935 12.1567 20.8967C12.0151 20.9086 11.8745 20.8649 11.7645 20.7749C11.6546 20.685 11.5839 20.5557 11.5676 20.4146H13.0301C13.0343 20.3611 13.0384 20.3075 13.0384 20.2498C13.0343 19.636 12.6552 19.2158 12.1032 19.2158ZM12.0949 19.5989C12.2243 19.5964 12.3495 19.6453 12.4429 19.7349C12.5364 19.8244 12.5905 19.9474 12.5934 20.0768H11.5717C11.5792 19.9446 11.6382 19.8206 11.7359 19.7313C11.8337 19.642 11.9626 19.5945 12.0949 19.5989ZM22.8437 20.2498V18.4742H22.4152V19.5042C22.3421 19.4099 22.2474 19.3345 22.1392 19.2844C22.0309 19.2342 21.9123 19.2107 21.7931 19.2158C21.5276 19.2288 21.2773 19.3434 21.094 19.5359C20.9107 19.7284 20.8084 19.984 20.8084 20.2499C20.8084 20.5157 20.9107 20.7713 21.094 20.9638C21.2773 21.1563 21.5276 21.2709 21.7931 21.284C21.9123 21.289 22.031 21.2655 22.1392 21.2153C22.2474 21.1652 22.3421 21.0898 22.4152 20.9955V21.2345H22.8437V20.2498ZM23.5579 20.9491C23.5845 20.9489 23.6109 20.9542 23.6354 20.9645C23.659 20.9743 23.6805 20.9886 23.6987 21.0064C23.7168 21.0243 23.7313 21.0455 23.7414 21.0688C23.7517 21.0928 23.757 21.1186 23.757 21.1447C23.757 21.1708 23.7517 21.1967 23.7414 21.2207C23.7313 21.2439 23.7168 21.265 23.6987 21.2828C23.6804 21.3007 23.659 21.315 23.6354 21.325C23.6109 21.3355 23.5845 21.3408 23.5579 21.3406C23.5187 21.341 23.4803 21.3298 23.4474 21.3085C23.4145 21.2872 23.3886 21.2566 23.373 21.2207C23.3627 21.1967 23.3574 21.1708 23.3574 21.1447C23.3574 21.1186 23.3627 21.0928 23.373 21.0688C23.383 21.0455 23.3974 21.0243 23.4155 21.0064C23.4337 20.9884 23.4553 20.9742 23.479 20.9645C23.504 20.9541 23.5308 20.9489 23.5579 20.9491ZM23.5579 21.2974C23.5782 21.2976 23.5983 21.2935 23.6169 21.2854C23.6348 21.2776 23.6511 21.2666 23.6649 21.2528C23.6933 21.2241 23.7093 21.1853 23.7093 21.1448C23.7093 21.1044 23.6933 21.0656 23.6649 21.0369C23.6511 21.0231 23.6348 21.0121 23.6169 21.0045C23.5983 20.9966 23.5782 20.9926 23.5579 20.9928C23.5372 20.9926 23.5168 20.9966 23.4977 21.0045C23.4795 21.012 23.463 21.023 23.449 21.0369C23.4206 21.0656 23.4046 21.1044 23.4046 21.1448C23.4046 21.1853 23.4206 21.2241 23.449 21.2528C23.463 21.2667 23.4795 21.2778 23.4977 21.2854C23.5167 21.2935 23.5372 21.2976 23.5579 21.2974ZM23.5694 21.0532C23.5887 21.0519 23.6078 21.0575 23.6234 21.0688C23.6296 21.0739 23.6346 21.0804 23.6379 21.0878C23.6412 21.0952 23.6427 21.1032 23.6423 21.1113C23.6426 21.1182 23.6413 21.125 23.6387 21.1314C23.6361 21.1378 23.6322 21.1436 23.6272 21.1484C23.6153 21.159 23.6002 21.1653 23.5843 21.1664L23.6438 21.235H23.5973L23.5421 21.1669H23.5243V21.235H23.4855V21.0532H23.5694ZM23.5243 21.0873V21.1357H23.569C23.5775 21.1362 23.586 21.1341 23.5934 21.1297C23.5964 21.1277 23.5989 21.125 23.6005 21.1217C23.6021 21.1185 23.6028 21.1149 23.6025 21.1113C23.6027 21.1077 23.602 21.1042 23.6004 21.101C23.5988 21.0979 23.5964 21.0952 23.5934 21.0932C23.586 21.0889 23.5775 21.0869 23.569 21.0873H23.5243ZM21.2493 20.2498C21.2559 20.1336 21.2965 20.0219 21.3658 19.9284C21.4352 19.835 21.5304 19.7639 21.6398 19.7239C21.7491 19.6839 21.8677 19.6768 21.981 19.7034C22.0943 19.7301 22.1973 19.7893 22.2774 19.8738C22.3575 19.9582 22.411 20.0643 22.4315 20.1789C22.452 20.2935 22.4386 20.4115 22.3928 20.5185C22.347 20.6255 22.2708 20.7168 22.1738 20.781C22.0768 20.8453 21.963 20.8798 21.8466 20.8802C21.7651 20.8813 21.6841 20.8655 21.609 20.8337C21.5338 20.802 21.466 20.7551 21.4099 20.6958C21.3538 20.6366 21.3105 20.5664 21.2829 20.4896C21.2552 20.4129 21.2438 20.3312 21.2493 20.2498ZM6.78029 20.2498V19.2652H6.3518V19.5042C6.27867 19.4099 6.18403 19.3345 6.0758 19.2844C5.96757 19.2342 5.84889 19.2107 5.7297 19.2158C5.46421 19.2288 5.2139 19.3434 5.0306 19.5359C4.8473 19.7284 4.74507 19.9841 4.74507 20.2499C4.74507 20.5157 4.8473 20.7713 5.0306 20.9638C5.2139 21.1563 5.46421 21.2709 5.7297 21.284C5.84889 21.289 5.96757 21.2655 6.0758 21.2153C6.18403 21.1652 6.27867 21.0898 6.3518 20.9955V21.2345H6.78029V20.2498ZM5.18591 20.2498C5.19256 20.1336 5.23308 20.0219 5.30247 19.9284C5.37185 19.835 5.46707 19.7639 5.57638 19.7239C5.68569 19.6839 5.80431 19.6768 5.91762 19.7034C6.03092 19.7301 6.13396 19.7893 6.21402 19.8738C6.29408 19.9582 6.34766 20.0643 6.36816 20.1789C6.38866 20.2935 6.37518 20.4115 6.32938 20.5185C6.28359 20.6255 6.20747 20.7168 6.11043 20.7811C6.01339 20.8453 5.89966 20.8798 5.78327 20.8802C5.70169 20.8813 5.62076 20.8655 5.54559 20.8337C5.47042 20.802 5.40264 20.7551 5.34652 20.6958C5.2904 20.6366 5.24716 20.5664 5.21951 20.4896C5.19187 20.4129 5.18043 20.3312 5.18591 20.2498Z" fill="#231F20"/>
<path d="M15.2455 4.25717H8.75586V15.9193H15.2455V4.25717Z" fill="#FF5F00"/>
<path d="M9.16737 10.0887C9.16635 8.96551 9.42086 7.85685 9.91165 6.84661C10.4024 5.83636 11.1166 4.95101 12.0002 4.25759C10.906 3.39758 9.59201 2.86275 8.20829 2.71423C6.82457 2.56572 5.42699 2.80951 4.17527 3.41774C2.92356 4.02597 1.86822 4.97409 1.12988 6.15375C0.391546 7.33341 0 8.697 0 10.0887C0 11.4803 0.391546 12.8439 1.12988 14.0236C1.86822 15.2032 2.92356 16.1514 4.17527 16.7596C5.42699 17.3678 6.82457 17.6116 8.20829 17.4631C9.59201 17.3146 10.906 16.7798 12.0002 15.9197C11.1166 15.2263 10.4024 14.341 9.91165 13.3307C9.42087 12.3205 9.16635 11.2118 9.16737 10.0887Z" fill="#EB001B"/>
<path d="M23.9998 10.0887C23.9998 11.4803 23.6083 12.8439 22.87 14.0235C22.1317 15.2032 21.0764 16.1513 19.8247 16.7596C18.5731 17.3678 17.1755 17.6116 15.7918 17.4631C14.4081 17.3146 13.0941 16.7797 12 15.9197C12.8828 15.2256 13.5964 14.3401 14.0871 13.33C14.5778 12.3199 14.8328 11.2116 14.8328 10.0887C14.8328 8.96569 14.5778 7.85738 14.0871 6.84729C13.5964 5.83721 12.8828 4.95171 12 4.25758C13.0941 3.39757 14.4081 2.86275 15.7918 2.71423C17.1755 2.56572 18.5731 2.80951 19.8247 3.41775C21.0764 4.02598 22.1317 4.97412 22.87 6.15377C23.6083 7.33343 23.9998 8.69701 23.9998 10.0887Z" fill="#F79E1B"/>
<path d="M23.2925 14.6843V14.4455H23.3887V14.3969H23.1436V14.4455H23.2399V14.6843H23.2925ZM23.7685 14.6843V14.3964H23.6933L23.6069 14.5944L23.5204 14.3964H23.4452V14.6843H23.4983V14.4672L23.5794 14.6544H23.6344L23.7154 14.4667V14.6843H23.7685Z" fill="#F79E1B"/>
</svg>
